<svg xmlns="http://www.w3.org/2000/svg" xmlns:xlink="http://www.w3.org/1999/xlink" preserveAspectRatio="xMidYMid" width="141.594" height="23.188" viewBox="0 0 141.594 23.188">
  <defs>
    <style>
      .cls-1, .cls-2, .cls-3, .cls-5 {
        fill: #435966;
      }

      .cls-1, .cls-2, .cls-3 {
        fill-rule: evenodd;
      }

      .cls-2 {
        opacity: 0.8;
      }

      .cls-3 {
        opacity: 0.5;
      }

      .cls-4, .cls-5 {
        font-size: 18px;
      }

      .cls-5 {
        text-anchor: middle;
        font-family: "RTWS YueGothic G0v1";
      }
    </style>
  </defs>
  <g>
    <g>
      <path d="M12.827,0.155 C12.662,0.028 12.348,-0.006 12.127,-0.006 C11.582,-0.006 10.251,0.546 9.372,1.025 C5.937,2.877 1.476,6.892 -0.006,9.898 C0.065,9.918 0.133,9.943 0.199,9.971 C0.854,10.222 1.320,10.853 1.320,11.594 C1.320,12.407 0.759,13.087 0.002,13.279 C1.445,16.313 5.909,20.309 9.372,22.164 C10.257,22.619 11.582,23.194 12.127,23.194 C12.347,23.194 12.631,23.160 12.796,23.033 C13.037,22.848 13.196,22.613 13.196,22.175 L13.196,1.013 C13.196,0.611 13.068,0.341 12.827,0.155 ZM4.860,10.566 C4.055,10.566 3.402,9.916 3.402,9.115 C3.402,8.313 4.055,7.664 4.860,7.664 C5.666,7.664 6.319,8.313 6.319,9.115 C6.319,9.916 5.666,10.566 4.860,10.566 Z" class="cls-1"/>
      <path d="M15.007,14.792 C14.815,14.792 14.627,14.698 14.516,14.525 C14.342,14.256 14.420,13.897 14.691,13.724 C15.423,13.257 15.859,12.464 15.859,11.602 C15.859,10.740 15.423,9.947 14.691,9.480 C14.420,9.307 14.342,8.948 14.516,8.679 C14.690,8.409 15.050,8.331 15.321,8.504 C16.388,9.185 17.026,10.343 17.026,11.602 C17.026,12.861 16.388,14.019 15.321,14.700 C15.224,14.762 15.115,14.792 15.007,14.792 Z" class="cls-1"/>
      <path d="M16.945,6.382 C16.753,6.382 16.565,6.476 16.454,6.649 C16.280,6.918 16.358,7.277 16.630,7.450 C18.060,8.363 18.914,9.916 18.914,11.602 C18.914,13.289 18.060,14.841 16.630,15.754 C16.358,15.927 16.280,16.286 16.454,16.555 C16.565,16.728 16.753,16.822 16.945,16.822 C17.053,16.822 17.162,16.792 17.259,16.730 C19.026,15.603 20.081,13.685 20.081,11.602 C20.081,9.519 19.026,7.602 17.259,6.474 C17.162,6.412 17.053,6.382 16.945,6.382 " class="cls-2"/>
      <path d="M18.942,4.352 C18.750,4.352 18.562,4.446 18.450,4.619 C18.276,4.888 18.355,5.247 18.626,5.420 C20.756,6.780 22.028,9.091 22.028,11.602 C22.028,14.113 20.756,16.424 18.626,17.784 C18.355,17.957 18.276,18.316 18.450,18.585 C18.561,18.758 18.749,18.852 18.941,18.852 C19.049,18.852 19.158,18.822 19.256,18.760 C21.722,17.186 23.194,14.510 23.194,11.602 C23.194,8.694 21.722,6.018 19.256,4.444 C19.159,4.382 19.050,4.352 18.942,4.352 " class="cls-3"/>
    </g>
    <text x="85.594" y="17.594" class="cls-4"><tspan class="cls-5">数据监测系统</tspan></text>
  </g>
</svg>
