<?xml version="1.0" standalone="no"?><!DOCTYPE svg PUBLIC "-//W3C//DTD SVG 1.1//EN" "http://www.w3.org/Graphics/SVG/1.1/DTD/svg11.dtd"><svg t="1517466266635" class="icon" style="" viewBox="0 0 1024 1024" version="1.1" xmlns="http://www.w3.org/2000/svg" p-id="5839" xmlns:xlink="http://www.w3.org/1999/xlink" width="16" height="16"><defs><style type="text/css"></style></defs><path d="M819.2 819.2c-9.6 0-16-3.2-22.4-12.8-6.4-12.8-3.2-28.8 6.4-35.2 92.8-57.6 147.2-160 147.2-268.8S896 294.4 806.4 236.8c-12.8-6.4-16-22.4-6.4-35.2 6.4-12.8 19.2-16 32-9.6 105.6 67.2 169.6 185.6 169.6 310.4s-64 243.2-169.6 310.4c-3.2 6.4-9.6 6.4-12.8 6.4z" fill="#32bba4" p-id="5840"></path><path d="M732.8 729.6c-9.6 0-16-3.2-22.4-12.8-6.4-12.8-3.2-28.8 6.4-35.2 60.8-38.4 99.2-105.6 99.2-179.2s-38.4-140.8-99.2-179.2c-9.6-6.4-12.8-22.4-6.4-35.2 6.4-12.8 22.4-16 35.2-6.4 76.8 48 121.6 131.2 121.6 224s-44.8 172.8-121.6 224h-12.8z" fill="#32bba4" p-id="5841"></path><path d="M649.6 643.2c-9.6 0-16-3.2-22.4-12.8-6.4-12.8-3.2-28.8 6.4-35.2 32-19.2 51.2-54.4 51.2-92.8s-19.2-70.4-51.2-92.8c-12.8-6.4-16-22.4-6.4-35.2 6.4-12.8 22.4-16 35.2-6.4 44.8 28.8 73.6 80 73.6 134.4s-28.8 105.6-73.6 137.6c-3.2 3.2-9.6 3.2-12.8 3.2zM550.4 6.4c-6.4-6.4-16-6.4-25.6-6.4-22.4 0-80 25.6-118.4 44.8C256 124.8 64 300.8 0 428.8c3.2 0 6.4 3.2 9.6 3.2 28.8 9.6 48 38.4 48 70.4 0 35.2-25.6 64-57.6 73.6 60.8 131.2 256 304 406.4 387.2 38.4 19.2 96 44.8 118.4 44.8 9.6 0 19.2 0 25.6-6.4 9.6-9.6 16-19.2 16-38.4V44.8c0-19.2-6.4-28.8-16-38.4zM211.2 460.8c-35.2 0-64-28.8-64-64s28.8-64 64-64 64 28.8 64 64c-3.2 35.2-28.8 64-64 64z" fill="#32bba4" p-id="5842"></path></svg>