<svg xmlns="http://www.w3.org/2000/svg" xmlns:xlink="http://www.w3.org/1999/xlink" preserveAspectRatio="xMidYMid" width="13" height="13" viewBox="0 0 13 13">
  <defs>
    <style>
      .cls-1 {
        fill: #435966;
        fill-rule: evenodd;
      }
    </style>
  </defs>
  <path d="M12.500,7.000 L6.990,7.000 L6.990,12.500 C6.990,12.776 6.766,13.000 6.490,13.000 C6.214,13.000 5.990,12.776 5.990,12.500 L5.990,7.000 L0.500,7.000 C0.224,7.000 0.000,6.776 0.000,6.500 C0.000,6.224 0.224,6.000 0.500,6.000 L5.990,6.000 L5.990,0.500 C5.990,0.224 6.214,-0.000 6.490,-0.000 C6.766,-0.000 6.990,0.224 6.990,0.500 L6.990,6.000 L12.500,6.000 C12.776,6.000 13.000,6.224 13.000,6.500 C13.000,6.776 12.776,7.000 12.500,7.000 Z" class="cls-1"/>
</svg>
