<svg xmlns="http://www.w3.org/2000/svg" xmlns:xlink="http://www.w3.org/1999/xlink" preserveAspectRatio="xMidYMid" width="30" height="30" viewBox="0 0 30 30">
  <defs>
    <style>
      .cls-1 {
        fill: #435966;
        fill-rule: evenodd;
      }
    </style>
  </defs>
  <path d="M3.790,4.762 C5.045,4.762 6.158,5.381 6.845,6.333 L10.824,3.524 C10.729,3.238 10.658,2.929 10.658,2.619 C10.658,1.167 11.818,-0.000 13.263,-0.000 C14.708,-0.000 15.868,1.167 15.868,2.619 C15.868,4.071 14.708,5.238 13.263,5.238 C12.387,5.238 11.629,4.809 11.155,4.167 L7.200,6.952 C7.437,7.452 7.579,8.000 7.579,8.571 C7.579,9.333 7.366,10.024 6.987,10.619 L11.345,13.690 C12.032,12.905 13.074,12.381 14.211,12.381 C16.295,12.381 18.000,14.095 18.000,16.190 C18.000,18.286 16.295,20.000 14.211,20.000 C12.126,20.000 10.421,18.286 10.421,16.190 C10.421,15.500 10.611,14.833 10.942,14.286 L6.537,11.190 C5.850,11.929 4.879,12.381 3.790,12.381 C1.705,12.381 0.000,10.667 0.000,8.571 C0.000,6.476 1.705,4.762 3.790,4.762 L3.790,4.762 ZM13.263,4.524 C14.305,4.524 15.158,3.667 15.158,2.619 C15.158,1.571 14.305,0.714 13.263,0.714 C12.221,0.714 11.368,1.571 11.368,2.619 C11.368,3.667 12.221,4.524 13.263,4.524 L13.263,4.524 ZM14.211,19.286 C15.916,19.286 17.290,17.905 17.290,16.190 C17.290,14.476 15.916,13.095 14.211,13.095 C12.505,13.095 11.132,14.476 11.132,16.190 C11.132,17.905 12.505,19.286 14.211,19.286 L14.211,19.286 ZM3.790,11.667 C5.495,11.667 6.869,10.286 6.869,8.571 C6.869,6.857 5.495,5.476 3.790,5.476 C2.084,5.476 0.711,6.857 0.711,8.571 C0.711,10.286 2.084,11.667 3.790,11.667 L3.790,11.667 Z" transform="translate(6 5)" class="cls-1"/>
</svg>
