<svg xmlns="http://www.w3.org/2000/svg" xmlns:xlink="http://www.w3.org/1999/xlink" preserveAspectRatio="xMidYMid" width="10" height="9" viewBox="0 0 10 9">
  <defs>
    <style>
      .cls-1 {
        fill: #435966;
        opacity: 0.5;
        fill-rule: evenodd;
      }
    </style>
  </defs>
  <path d="M8.413,5.994 C7.758,5.994 7.223,6.325 6.974,6.839 L3.810,5.567 C3.994,5.297 4.096,4.966 4.096,4.609 C4.096,4.461 4.078,4.313 4.041,4.173 L6.061,2.692 C6.328,2.884 6.670,2.997 7.048,2.997 C7.961,2.997 8.644,2.352 8.644,1.499 C8.644,0.645 7.961,-0.000 7.048,-0.000 C6.135,-0.000 5.461,0.645 5.461,1.499 C5.461,1.716 5.507,1.917 5.581,2.091 L3.718,3.441 C3.349,2.919 2.740,2.553 2.048,2.553 C0.913,2.553 0.000,3.415 0.000,4.487 C0.000,5.559 0.913,6.421 2.048,6.421 C2.472,6.421 2.869,6.317 3.192,6.125 L6.827,7.589 C6.873,8.399 7.537,9.000 8.413,9.000 C9.326,9.000 10.000,8.355 10.000,7.502 C10.000,6.648 9.317,5.994 8.413,5.994 L8.413,5.994 Z" class="cls-1"/>
</svg>
