<svg xmlns="http://www.w3.org/2000/svg" xmlns:xlink="http://www.w3.org/1999/xlink" preserveAspectRatio="xMidYMid" width="18" height="18" viewBox="0 0 18 18">
  <defs>
    <style>
      .cls-1 {
        fill: #f16c6c;
        fill-rule: evenodd;
      }
    </style>
  </defs>
  <path d="M17.293,12.502 C16.840,13.573 16.190,14.536 15.366,15.363 C14.538,16.190 13.576,16.838 12.505,17.291 C11.394,17.764 10.215,18.000 9.001,18.000 C7.785,18.000 6.608,17.761 5.498,17.293 C4.427,16.840 3.464,16.190 2.637,15.366 C1.810,14.538 1.160,13.576 0.707,12.502 C0.236,11.392 0.000,10.212 0.000,8.999 C0.000,7.783 0.239,6.606 0.707,5.495 C1.160,4.424 1.810,3.462 2.637,2.634 C3.464,1.807 4.427,1.160 5.498,0.707 C6.608,0.236 7.788,0.000 9.001,0.000 C10.215,0.000 11.394,0.239 12.505,0.707 C13.576,1.160 14.538,1.810 15.366,2.634 C16.193,3.462 16.840,4.424 17.293,5.495 C17.764,6.606 18.000,7.785 18.000,8.999 C18.000,10.215 17.761,11.392 17.293,12.502 ZM12.869,5.739 C13.035,5.570 13.035,5.299 12.869,5.133 C12.789,5.051 12.682,5.008 12.567,5.008 C12.454,5.008 12.347,5.051 12.267,5.130 L9.006,8.397 L5.739,5.138 C5.659,5.056 5.552,5.013 5.437,5.013 C5.322,5.013 5.214,5.059 5.135,5.138 L5.132,5.141 C5.053,5.222 5.010,5.330 5.010,5.442 C5.010,5.555 5.053,5.662 5.135,5.744 L8.402,9.001 L5.143,12.268 C4.976,12.437 4.976,12.708 5.143,12.874 C5.222,12.956 5.329,12.999 5.445,12.999 C5.557,12.999 5.665,12.956 5.744,12.877 L9.008,9.607 L12.275,12.866 C12.354,12.948 12.462,12.992 12.577,12.992 C12.689,12.992 12.794,12.948 12.874,12.872 L12.879,12.866 C13.045,12.700 13.045,12.429 12.879,12.263 L9.612,9.004 L12.869,5.739 Z" class="cls-1"/>
</svg>
