<svg xmlns="http://www.w3.org/2000/svg" xmlns:xlink="http://www.w3.org/1999/xlink" preserveAspectRatio="xMidYMid" width="14" height="14" viewBox="0 0 14 14">
  <defs>
    <style>
      .cls-1 {
        fill: #565b5f;
        fill-rule: evenodd;
      }
    </style>
  </defs>
  <path d="M13.962,13.686 C13.887,13.868 13.709,13.987 13.510,13.990 L13.500,14.000 C13.369,13.998 13.244,13.945 13.152,13.853 L11.053,11.779 C9.884,12.739 8.403,13.340 6.765,13.343 C4.032,13.347 1.566,11.724 0.517,9.231 C-0.532,6.738 0.044,3.867 1.975,1.957 C3.906,0.047 6.812,-0.526 9.338,0.506 C11.863,1.538 13.510,3.972 13.510,6.671 C13.510,8.378 12.842,9.918 11.774,11.098 L13.858,13.156 C13.997,13.296 14.038,13.505 13.962,13.686 ZM6.765,0.990 C4.433,0.986 2.328,2.371 1.434,4.499 C0.540,6.626 1.032,9.076 2.681,10.705 C4.330,12.333 6.811,12.820 8.965,11.936 C11.118,11.053 12.521,8.974 12.517,6.671 C12.511,3.536 9.939,0.996 6.765,0.990 ZM5.454,3.463 C4.543,3.815 3.823,4.526 3.467,5.425 C3.405,5.582 3.267,5.697 3.099,5.729 C2.935,5.730 2.781,5.651 2.687,5.517 C2.594,5.384 2.573,5.213 2.633,5.062 C3.069,3.929 3.956,3.022 5.086,2.550 C5.341,2.450 5.630,2.573 5.732,2.825 C5.833,3.077 5.709,3.362 5.454,3.463 Z" class="cls-1"/>
</svg>
