<svg xmlns="http://www.w3.org/2000/svg" xmlns:xlink="http://www.w3.org/1999/xlink" preserveAspectRatio="xMidYMid" width="20" height="20" viewBox="0 0 20 20">
  <defs>
    <style>
      .cls-1 {
        fill: #435966;
        fill-rule: evenodd;
      }
    </style>
  </defs>
  <path d="M15.247,9.538 C14.931,9.538 14.615,9.336 14.405,9.031 L11.777,9.031 C11.461,9.031 11.251,8.827 11.251,8.625 L9.779,3.755 L7.676,10.450 C7.571,10.654 7.255,10.856 7.046,10.755 L6.729,10.450 L5.152,7.000 L4.101,8.724 C3.996,8.928 3.785,9.029 3.680,9.029 L2.628,9.029 C2.312,9.029 2.103,8.724 2.103,8.520 C2.103,8.215 2.312,8.012 2.628,8.012 L3.364,8.012 L4.836,5.781 C4.836,5.680 4.941,5.579 5.045,5.579 C5.255,5.478 5.466,5.478 5.571,5.579 C5.571,5.680 5.676,5.680 5.676,5.781 L7.043,8.825 L9.253,1.827 C9.253,1.726 9.358,1.625 9.358,1.625 C9.358,1.625 9.463,1.524 9.567,1.524 C9.882,1.423 10.198,1.627 10.198,1.829 L12.091,8.016 L14.405,8.016 C14.512,7.711 14.826,7.509 15.247,7.509 C15.878,7.509 16.299,7.915 16.299,8.524 C16.299,9.132 15.773,9.538 15.247,9.538 ZM16.240,13.493 C16.240,13.798 16.032,14.000 15.717,14.000 L1.048,14.000 C0.419,14.000 -0.000,13.493 -0.000,12.986 L-0.000,0.507 C-0.000,0.202 0.209,-0.000 0.524,-0.000 C0.839,-0.000 0.902,0.570 0.902,0.875 L0.902,12.250 C0.902,12.555 1.488,13.125 1.803,13.125 L15.328,13.125 C15.539,13.125 16.240,13.188 16.240,13.493 Z" transform="translate(1.85 3)" class="cls-1"/>
</svg>
