<svg xmlns="http://www.w3.org/2000/svg" xmlns:xlink="http://www.w3.org/1999/xlink" preserveAspectRatio="xMidYMid" width="13" height="13" viewBox="0 0 13 13">
  <defs>
    <style>
      .cls-1 {
        fill: #435966;
        fill-rule: evenodd;
      }
    </style>
  </defs>
  <path d="M12.000,13.000 L8.000,13.000 C7.448,13.000 7.000,12.552 7.000,12.000 L7.000,7.000 C7.000,6.448 7.448,6.000 8.000,6.000 L12.000,6.000 C12.552,6.000 13.000,6.448 13.000,7.000 L13.000,12.000 C13.000,12.552 12.552,13.000 12.000,13.000 ZM12.000,5.000 L8.000,5.000 C7.448,5.000 7.000,4.552 7.000,4.000 L7.000,1.000 C7.000,0.448 7.448,-0.000 8.000,-0.000 L12.000,-0.000 C12.552,-0.000 13.000,0.448 13.000,1.000 L13.000,4.000 C13.000,4.552 12.552,5.000 12.000,5.000 ZM5.000,13.000 L1.000,13.000 C0.448,13.000 0.000,12.552 0.000,12.000 L0.000,9.000 C0.000,8.448 0.448,8.000 1.000,8.000 L5.000,8.000 C5.552,8.000 6.000,8.448 6.000,9.000 L6.000,12.000 C6.000,12.552 5.552,13.000 5.000,13.000 ZM5.000,7.000 L1.000,7.000 C0.448,7.000 0.000,6.552 0.000,6.000 L0.000,1.000 C0.000,0.448 0.448,-0.000 1.000,-0.000 L5.000,-0.000 C5.552,-0.000 6.000,0.448 6.000,1.000 L6.000,6.000 C6.000,6.552 5.552,7.000 5.000,7.000 Z" class="cls-1"/>
</svg>
