<svg xmlns="http://www.w3.org/2000/svg" xmlns:xlink="http://www.w3.org/1999/xlink" preserveAspectRatio="xMidYMid" width="100" height="100" viewBox="0 0 100 100">
  <defs>
    <style>
      .cls-1 {
        fill: #c9cfd3;
        fill-rule: evenodd;
      }
    </style>
  </defs>
  <path d="M50.000,100.000 C22.386,100.000 0.000,77.614 0.000,50.000 C0.000,22.386 22.386,-0.000 50.000,-0.000 C77.614,-0.000 100.000,22.386 100.000,50.000 C100.000,77.614 77.614,100.000 50.000,100.000 ZM50.000,1.000 C22.938,1.000 1.000,22.938 1.000,50.000 C1.000,77.062 22.938,99.000 50.000,99.000 C77.062,99.000 99.000,77.062 99.000,50.000 C99.000,22.938 77.062,1.000 50.000,1.000 ZM74.000,51.000 L51.000,51.000 L51.000,74.000 C51.000,74.552 50.552,75.000 50.000,75.000 C49.448,75.000 49.000,74.552 49.000,74.000 L49.000,51.000 L26.000,51.000 C25.448,51.000 25.000,50.552 25.000,50.000 C25.000,49.448 25.448,49.000 26.000,49.000 L49.000,49.000 L49.000,26.000 C49.000,25.448 49.448,25.000 50.000,25.000 C50.552,25.000 51.000,25.448 51.000,26.000 L51.000,49.000 L74.000,49.000 C74.552,49.000 75.000,49.448 75.000,50.000 C75.000,50.552 74.552,51.000 74.000,51.000 Z" class="cls-1"/>
</svg>
