<svg xmlns="http://www.w3.org/2000/svg" xmlns:xlink="http://www.w3.org/1999/xlink" preserveAspectRatio="xMidYMid" width="30" height="30" viewBox="0 0 30 30">
  <defs>
    <style>
      .cls-1 {
        fill: #435966;
        fill-rule: evenodd;
      }
    </style>
  </defs>
  <path d="M17.778,20.000 L2.222,20.000 C0.995,19.999 0.001,19.005 0.000,17.778 L0.000,2.222 C0.001,0.995 0.995,0.001 2.222,-0.000 L8.333,-0.000 C8.640,-0.000 8.889,0.249 8.889,0.556 C8.889,0.862 8.640,1.111 8.333,1.111 L2.222,1.111 C1.609,1.112 1.112,1.609 1.111,2.222 L1.111,17.778 C1.112,18.391 1.609,18.888 2.222,18.889 L17.778,18.889 C18.391,18.888 18.888,18.391 18.889,17.778 L18.889,11.667 C18.888,11.519 18.947,11.378 19.051,11.274 C19.155,11.170 19.297,11.111 19.444,11.111 C19.592,11.111 19.733,11.170 19.837,11.274 C19.941,11.378 20.000,11.519 20.000,11.667 L20.000,17.778 C19.999,19.005 19.004,19.999 17.778,20.000 ZM8.725,12.060 C8.621,12.164 8.480,12.223 8.333,12.223 C8.185,12.223 8.044,12.164 7.940,12.060 C7.836,11.956 7.777,11.814 7.777,11.667 C7.777,11.519 7.836,11.378 7.940,11.274 L19.051,0.163 C19.268,-0.054 19.620,-0.054 19.837,0.163 C20.054,0.380 20.054,0.732 19.837,0.949 L8.725,12.060 Z" transform="translate(4.99 5)" class="cls-1"/>
</svg>
