<svg xmlns="http://www.w3.org/2000/svg" xmlns:xlink="http://www.w3.org/1999/xlink" preserveAspectRatio="xMidYMid" width="14" height="14" viewBox="0 0 14 14">
  <defs>
    <style>
      .cls-1 {
        fill: #435966;
        opacity: 0.5;
        fill-rule: evenodd;
      }
    </style>
  </defs>
  <path d="M12.425,14.000 L1.553,14.000 C0.696,13.999 0.001,13.303 0.000,12.444 L0.000,1.556 C0.001,0.697 0.696,0.001 1.553,-0.000 L5.824,-0.000 C6.039,-0.000 6.213,0.174 6.213,0.389 C6.213,0.604 6.039,0.778 5.824,0.778 L1.553,0.778 C1.124,0.778 0.777,1.126 0.776,1.556 L0.776,12.444 C0.777,12.874 1.124,13.222 1.553,13.222 L12.425,13.222 C12.854,13.222 13.201,12.874 13.201,12.444 L13.201,8.167 C13.201,8.064 13.242,7.965 13.315,7.892 C13.388,7.819 13.487,7.778 13.590,7.778 C13.693,7.778 13.792,7.819 13.864,7.892 C13.937,7.965 13.978,8.064 13.978,8.167 L13.978,12.444 C13.977,13.303 13.282,13.999 12.425,14.000 ZM6.098,8.442 C6.026,8.515 5.927,8.556 5.824,8.556 C5.721,8.556 5.622,8.515 5.549,8.442 C5.476,8.369 5.435,8.270 5.435,8.167 C5.435,8.064 5.476,7.965 5.549,7.892 L13.315,0.114 C13.467,-0.038 13.713,-0.038 13.864,0.114 C14.016,0.266 14.016,0.512 13.864,0.664 L6.098,8.442 Z" class="cls-1"/>
</svg>
