<svg xmlns="http://www.w3.org/2000/svg" xmlns:xlink="http://www.w3.org/1999/xlink" preserveAspectRatio="xMidYMid" width="20" height="20" viewBox="0 0 20 20">
  <defs>
    <style>
      .cls-1 {
        fill: #435966;
        fill-rule: evenodd;
      }
    </style>
  </defs>
  <path d="M17.572,1.115 C17.520,1.119 17.468,1.118 17.416,1.118 L10.531,1.118 C8.228,1.118 5.926,1.119 3.624,1.118 C3.548,1.118 3.470,1.118 3.398,1.100 C3.164,1.043 3.003,0.815 3.027,0.588 C3.054,0.336 3.251,0.150 3.507,0.135 C3.531,0.134 3.556,0.134 3.580,0.134 C8.212,0.134 12.844,0.134 17.476,0.134 C17.789,0.134 18.002,0.308 18.029,0.585 C18.055,0.856 17.849,1.096 17.572,1.115 ZM3.314,5.254 C8.022,5.254 12.729,5.253 17.436,5.255 C17.520,5.255 17.607,5.260 17.686,5.281 C17.918,5.343 18.056,5.541 18.026,5.750 C17.995,5.958 17.803,6.115 17.559,6.129 C17.506,6.132 17.453,6.132 17.400,6.132 C15.057,6.132 12.714,6.132 10.371,6.132 C8.020,6.132 5.670,6.132 3.320,6.131 C3.243,6.131 3.163,6.131 3.089,6.114 C2.851,6.062 2.689,5.858 2.715,5.655 C2.743,5.435 2.940,5.271 3.198,5.255 C3.236,5.253 3.275,5.254 3.314,5.254 ZM0.900,12.250 C0.402,12.250 -0.002,11.858 -0.002,11.375 C-0.002,10.892 0.402,10.500 0.900,10.500 C1.398,10.500 1.801,10.892 1.801,11.375 C1.801,11.858 1.398,12.250 0.900,12.250 ZM0.900,7.000 C0.402,7.000 -0.002,6.608 -0.002,6.125 C-0.002,5.642 0.402,5.250 0.900,5.250 C1.398,5.250 1.801,5.642 1.801,6.125 C1.801,6.608 1.398,7.000 0.900,7.000 ZM0.900,1.750 C0.402,1.750 -0.002,1.358 -0.002,0.875 C-0.002,0.392 0.402,0.000 0.900,0.000 C1.398,0.000 1.801,0.392 1.801,0.875 C1.801,1.358 1.398,1.750 0.900,1.750 ZM3.501,11.126 C3.545,11.123 3.589,11.124 3.633,11.124 C6.559,11.124 9.485,11.124 12.411,11.125 C12.502,11.125 12.596,11.130 12.681,11.155 C12.924,11.224 13.066,11.451 13.035,11.700 C13.007,11.925 12.802,12.107 12.554,12.125 C12.507,12.128 12.460,12.128 12.412,12.128 C10.947,12.128 9.482,12.128 8.017,12.128 C6.538,12.128 5.058,12.128 3.579,12.127 C3.292,12.127 3.085,11.993 3.019,11.766 C2.927,11.452 3.155,11.150 3.501,11.126 Z" transform="translate(0.98 3.88)" class="cls-1"/>
</svg>
