<svg xmlns="http://www.w3.org/2000/svg" xmlns:xlink="http://www.w3.org/1999/xlink" preserveAspectRatio="xMidYMid" width="14" height="14" viewBox="0 0 14 14">
  <defs>
    <style>
      .cls-1 {
        fill: #49dbff;
        fill-rule: evenodd;
      }
    </style>
  </defs>
  <path d="M11.958,-0.000 L2.041,-0.000 C0.916,-0.000 -0.000,0.903 -0.000,2.014 L-0.000,11.985 C-0.000,13.096 0.916,14.000 2.041,14.000 L11.958,14.000 C13.084,14.000 14.000,13.096 14.000,11.985 L14.000,2.014 C14.000,0.903 13.084,-0.000 11.958,-0.000 L11.958,-0.000 ZM10.889,5.444 L7.000,9.333 C6.911,9.421 6.348,10.111 6.222,10.111 C6.096,10.111 5.831,9.746 5.742,9.659 L2.869,6.824 C2.683,6.642 2.681,6.346 2.865,6.163 C3.049,5.980 3.703,6.040 3.889,6.222 L3.889,6.222 L6.077,8.668 L10.463,4.341 C10.648,4.158 10.948,4.159 11.132,4.341 C11.317,4.523 11.608,4.776 10.889,5.444 L10.889,5.444 Z" class="cls-1"/>
</svg>
