<svg xmlns="http://www.w3.org/2000/svg" xmlns:xlink="http://www.w3.org/1999/xlink" preserveAspectRatio="xMidYMid" width="30" height="30" viewBox="0 0 30 30">
  <defs>
    <style>
      .cls-1 {
        fill: #435966;
        fill-rule: evenodd;
      }
    </style>
  </defs>
  <path d="M22.450,15.449 C22.098,15.802 21.621,16.000 21.122,16.000 L1.878,16.000 C0.841,16.000 0.000,15.157 0.000,14.118 L0.000,1.882 C0.000,0.843 0.841,-0.000 1.878,-0.000 L21.122,-0.000 C21.621,-0.000 22.098,0.198 22.450,0.551 C22.802,0.904 23.000,1.383 23.000,1.882 L23.000,14.118 C23.000,14.617 22.802,15.096 22.450,15.449 ZM2.598,0.941 L10.003,7.948 C10.336,8.283 10.789,8.471 11.261,8.471 C11.732,8.471 12.185,8.283 12.519,7.948 L19.937,0.941 L2.598,0.941 ZM22.061,1.882 C22.061,1.633 21.962,1.393 21.786,1.217 C21.648,1.078 21.466,1.004 21.275,0.972 L13.171,8.635 C12.664,9.137 11.978,9.417 11.265,9.412 C10.545,9.413 9.855,9.127 9.345,8.617 L1.393,1.097 C1.332,1.135 1.266,1.165 1.214,1.217 C1.038,1.393 0.939,1.633 0.939,1.882 L0.939,14.118 C0.939,14.188 0.964,14.252 0.979,14.319 L7.811,8.471 C8.008,8.302 8.304,8.325 8.472,8.522 C8.641,8.720 8.618,9.017 8.421,9.186 L1.634,15.010 C1.714,15.032 1.793,15.059 1.878,15.059 L20.992,15.059 C20.981,15.051 20.964,15.054 20.954,15.045 L14.110,9.200 C13.909,9.031 13.883,8.731 14.051,8.529 C14.220,8.328 14.519,8.302 14.720,8.471 L21.564,14.329 C21.711,14.455 21.763,14.659 21.699,14.841 C21.727,14.819 21.761,14.808 21.786,14.783 C21.962,14.607 22.061,14.367 22.061,14.118 L22.061,1.882 Z" transform="translate(3.5 7)" class="cls-1"/>
</svg>
